<svg width="401" height="289" viewBox="0 0 401 289" fill="none" xmlns="http://www.w3.org/2000/svg">
<g clip-path="url(#clip0_790_14546)">
<path d="M319.168 230.324H270.088V231.025H319.168V230.324Z" fill="#F2F2F2"/>
<path d="M305.846 230.85H305.145V237.336H305.846V230.85Z" fill="#F2F2F2"/>
<path d="M284.461 230.85H283.76V237.336H284.461V230.85Z" fill="#F2F2F2"/>
<path d="M339.15 256.266H290.071V256.967H339.15V256.266Z" fill="#F2F2F2"/>
<path d="M304.093 249.956H303.392V256.442H304.093V249.956Z" fill="#F2F2F2"/>
<path d="M325.478 249.956H324.777V256.442H325.478V249.956Z" fill="#F2F2F2"/>
<path d="M49.5798 92.1998H0.5V92.901H49.5798V92.1998Z" fill="#F2F2F2"/>
<path d="M14.5228 85.8895H13.8217V92.3751H14.5228V85.8895Z" fill="#F2F2F2"/>
<path d="M35.9075 85.8895H35.2064V92.3751H35.9075V85.8895Z" fill="#F2F2F2"/>
<path d="M49.5798 143.383H0.5V144.084H49.5798V143.383Z" fill="#F2F2F2"/>
<path d="M36.2581 143.909H35.557V150.394H36.2581V143.909Z" fill="#F2F2F2"/>
<path d="M14.8734 143.909H14.1722V150.394H14.8734V143.909Z" fill="#F2F2F2"/>
<path d="M318.817 16.8274H269.738V17.5285H318.817V16.8274Z" fill="#F2F2F2"/>
<path d="M283.76 10.5171H283.059V17.0026H283.76V10.5171Z" fill="#F2F2F2"/>
<path d="M305.145 10.5171H304.444V17.0026H305.145V10.5171Z" fill="#F2F2F2"/>
<path d="M400.5 54.3383H351.42V55.0394H400.5V54.3383Z" fill="#F2F2F2"/>
<path d="M365.443 48.0281H364.742V54.5136H365.443V48.0281Z" fill="#F2F2F2"/>
<path d="M386.828 48.0281H386.127V54.5136H386.828V48.0281Z" fill="#F2F2F2"/>
<path d="M379.816 143.734H330.737V144.435H379.816V143.734Z" fill="#F2F2F2"/>
<path d="M344.759 137.423H344.058V143.909H344.759V137.423Z" fill="#F2F2F2"/>
<path d="M366.144 137.423H365.443V143.909H366.144V137.423Z" fill="#F2F2F2"/>
<path d="M81.8322 9.81592H32.7524V10.5171H81.8322V9.81592Z" fill="#F2F2F2"/>
<path d="M46.7752 3.50574H46.0741V9.99128H46.7752V3.50574Z" fill="#F2F2F2"/>
<path d="M68.1599 3.50574H67.4588V9.99128H68.1599V3.50574Z" fill="#F2F2F2"/>
<path d="M220.658 28.0455H171.578V28.7467H220.658V28.0455Z" fill="#F2F2F2"/>
<path d="M185.601 21.7354H184.9V28.2209H185.601V21.7354Z" fill="#F2F2F2"/>
<path d="M206.986 21.7354H206.284V28.2209H206.986V21.7354Z" fill="#F2F2F2"/>
<path d="M244.496 6.3103H195.417V7.01144H244.496V6.3103Z" fill="#F2F2F2"/>
<path d="M209.44 0H208.738V6.48554H209.44V0Z" fill="#F2F2F2"/>
<path d="M230.824 0H230.123V6.48554H230.824V0Z" fill="#F2F2F2"/>
<path d="M348.265 28.0455H299.185V28.7467H348.265V28.0455Z" fill="#F2F2F2"/>
<path d="M334.943 28.5714H334.242V35.057H334.943V28.5714Z" fill="#F2F2F2"/>
<path d="M313.559 28.5714H312.858V35.057H313.559V28.5714Z" fill="#F2F2F2"/>
<path d="M375.96 94.6538H326.88V95.3549H375.96V94.6538Z" fill="#F2F2F2"/>
<path d="M362.638 95.1797H361.937V101.665H362.638V95.1797Z" fill="#F2F2F2"/>
<path d="M341.254 95.1797H340.553V101.665H341.254V95.1797Z" fill="#F2F2F2"/>
<path d="M146.337 14.0228H97.2572V14.724H146.337V14.0228Z" fill="#F2F2F2"/>
<path d="M133.015 14.5486H132.314V21.0341H133.015V14.5486Z" fill="#F2F2F2"/>
<path d="M111.631 14.5486H110.929V21.0341H111.631V14.5486Z" fill="#F2F2F2"/>
<path d="M43.533 35.5328V89.3427C43.533 89.3427 125.593 74.0444 177.054 96.298C228.516 118.552 299.449 105.599 299.449 105.599V35.5328H43.533Z" fill="#7758B3"/>
<path d="M179.372 115.538C142.515 100.934 43.533 107.04 43.533 107.04V165.345H299.449V124.787C299.449 124.787 216.23 130.142 179.372 115.538Z" fill="#7758B3"/>
<path d="M280.707 147.9H280.243V165.149H280.707V147.9Z" fill="#3F3D56"/>
<path d="M280.475 150.34C281.822 150.34 282.914 149.247 282.914 147.9C282.914 146.553 281.822 145.461 280.475 145.461C279.128 145.461 278.036 146.553 278.036 147.9C278.036 149.247 279.128 150.34 280.475 150.34Z" fill="#3F3D56"/>
<path d="M280.475 158.531C280.475 158.531 280.126 151.036 272.983 151.908Z" fill="#3F3D56"/>
<path d="M57.3043 156.97C58.7122 162.174 63.5342 165.397 63.5342 165.397C63.5342 165.397 66.0738 160.183 64.666 154.979C63.2582 149.775 58.4361 146.552 58.4361 146.552C58.4361 146.552 55.8965 151.766 57.3043 156.97Z" fill="white"/>
<path d="M59.373 155.852C63.236 159.612 63.7079 165.393 63.7079 165.393C63.7079 165.393 57.9165 165.077 54.0535 161.316C50.1904 157.556 49.7186 151.775 49.7186 151.775C49.7186 151.775 55.51 152.091 59.373 155.852Z" fill="#3F3D56"/>
<path d="M163.538 147.769C160.6 158.632 150.535 165.359 150.535 165.359C150.535 165.359 145.234 154.475 148.172 143.612C151.111 132.75 161.176 126.022 161.176 126.022C161.176 126.022 166.477 136.906 163.538 147.769Z" fill="white"/>
<path d="M136.806 147.769C139.745 158.632 149.81 165.359 149.81 165.359C149.81 165.359 155.11 154.475 152.172 143.612C149.233 132.75 139.168 126.022 139.168 126.022C139.168 126.022 133.867 136.906 136.806 147.769Z" fill="white"/>
<path d="M141.124 145.434C149.187 153.284 150.172 165.35 150.172 165.35C150.172 165.35 138.084 164.69 130.02 156.841C121.957 148.991 120.972 136.925 120.972 136.925C120.972 136.925 133.061 137.585 141.124 145.434Z" fill="#3F3D56"/>
<path d="M159.221 145.434C151.157 153.284 150.172 165.35 150.172 165.35C150.172 165.35 162.261 164.69 170.324 156.841C178.387 148.991 179.372 136.925 179.372 136.925C179.372 136.925 167.284 137.585 159.221 145.434Z" fill="#3F3D56"/>
<path d="M191.93 165.408C191.38 165.408 190.842 165.245 190.385 164.939C189.927 164.634 189.571 164.199 189.36 163.691C189.149 163.183 189.094 162.623 189.202 162.084C189.309 161.544 189.574 161.049 189.963 160.66C190.352 160.271 190.848 160.006 191.387 159.898C191.927 159.791 192.486 159.846 192.994 160.057C193.503 160.267 193.937 160.624 194.243 161.081C194.548 161.539 194.712 162.076 194.712 162.627C194.711 163.364 194.417 164.071 193.896 164.593C193.374 165.114 192.667 165.407 191.93 165.408ZM191.93 160.308C191.471 160.308 191.023 160.444 190.642 160.699C190.261 160.954 189.964 161.316 189.788 161.739C189.613 162.163 189.567 162.629 189.656 163.079C189.746 163.528 189.967 163.941 190.291 164.266C190.615 164.59 191.028 164.811 191.478 164.9C191.927 164.99 192.393 164.944 192.817 164.768C193.241 164.593 193.603 164.296 193.857 163.914C194.112 163.533 194.248 163.085 194.248 162.627C194.247 162.012 194.003 161.423 193.568 160.988C193.134 160.554 192.545 160.309 191.93 160.308Z" fill="#F0F0F0"/>
<path d="M258.922 122.292C258.372 122.292 257.834 122.129 257.377 121.823C256.92 121.517 256.563 121.083 256.352 120.575C256.142 120.066 256.087 119.507 256.194 118.968C256.302 118.428 256.566 117.932 256.955 117.543C257.344 117.154 257.84 116.889 258.38 116.782C258.919 116.675 259.479 116.73 259.987 116.94C260.495 117.151 260.93 117.507 261.235 117.965C261.541 118.422 261.704 118.96 261.704 119.51C261.703 120.248 261.41 120.955 260.888 121.476C260.367 121.998 259.66 122.291 258.922 122.292ZM258.922 117.192C258.464 117.192 258.016 117.328 257.635 117.583C257.253 117.838 256.956 118.2 256.781 118.623C256.605 119.047 256.559 119.513 256.649 119.962C256.738 120.412 256.959 120.825 257.283 121.149C257.607 121.474 258.02 121.694 258.47 121.784C258.92 121.873 259.386 121.827 259.809 121.652C260.233 121.476 260.595 121.179 260.85 120.798C261.105 120.417 261.24 119.969 261.24 119.51C261.24 118.896 260.995 118.306 260.561 117.872C260.126 117.437 259.537 117.193 258.922 117.192Z" fill="#3F3D56"/>
<path d="M69.7272 119.809H65.1511V115.233H69.7272V119.809ZM65.5031 119.457H69.3752V115.585H65.5031V119.457Z" fill="#3F3D56"/>
<path d="M135.561 100.569H130.984V95.993H135.561V100.569ZM131.337 100.217H135.209V96.3451H131.337V100.217Z" fill="#3F3D56"/>
<path d="M256.173 160.949C257.463 160.949 258.509 159.903 258.509 158.613C258.509 157.322 257.463 156.276 256.173 156.276C254.882 156.276 253.836 157.322 253.836 158.613C253.836 159.903 254.882 160.949 256.173 160.949Z" fill="#F0F0F0"/>
<path d="M256.173 165.362C254.838 165.362 253.533 164.966 252.423 164.225C251.313 163.483 250.448 162.429 249.937 161.196C249.426 159.962 249.293 158.605 249.553 157.296C249.813 155.987 250.456 154.784 251.4 153.84C252.344 152.896 253.547 152.254 254.856 151.993C256.165 151.733 257.522 151.866 258.755 152.377C259.989 152.888 261.043 153.753 261.784 154.863C262.526 155.973 262.922 157.278 262.922 158.613C262.92 160.402 262.208 162.118 260.943 163.383C259.678 164.648 257.962 165.36 256.173 165.362ZM256.173 152.383C254.94 152.383 253.736 152.748 252.711 153.433C251.687 154.117 250.888 155.09 250.417 156.229C249.945 157.367 249.822 158.62 250.062 159.828C250.303 161.037 250.896 162.147 251.767 163.018C252.639 163.889 253.749 164.483 254.957 164.723C256.166 164.964 257.418 164.84 258.557 164.369C259.695 163.897 260.668 163.099 261.353 162.074C262.037 161.049 262.403 159.845 262.403 158.613C262.401 156.961 261.744 155.377 260.576 154.209C259.408 153.041 257.824 152.384 256.173 152.383Z" fill="#2F2E41"/>
<path d="M204.812 95.6068C205.034 95.8231 205.265 96.0395 205.496 96.2499L205.285 96.4829C205.05 96.2701 204.818 96.0514 204.592 95.8327L204.812 95.6068Z" fill="#E6E6E6"/>
<path d="M242.965 55.0028C243.278 55.2873 243.588 55.5813 243.885 55.8767L243.663 56.1C243.218 55.6578 242.748 55.2212 242.271 54.8079L242.477 54.5701C242.641 54.712 242.803 54.8562 242.965 55.0028ZM240.985 53.3614L240.796 53.6128C240.292 53.2322 239.769 52.865 239.242 52.5212L239.414 52.2576C239.947 52.6053 240.475 52.9766 240.985 53.3614ZM245.2 57.2749C245.622 57.7547 246.031 58.2544 246.417 58.7601L246.167 58.951C245.785 58.4512 245.381 57.9572 244.964 57.4828L245.2 57.2749ZM237.771 51.264L237.618 51.5389C237.068 51.2314 236.499 50.9393 235.929 50.6707L236.064 50.3859C236.64 50.6576 237.215 50.9531 237.771 51.264ZM247.529 60.3255C247.88 60.8574 248.217 61.4087 248.531 61.964L248.257 62.1189C247.947 61.5697 247.613 61.0247 247.267 60.4988L247.529 60.3255ZM234.299 49.6278L234.185 49.9212C233.598 49.6927 232.996 49.4818 232.395 49.2944L232.489 48.9938C233.096 49.1834 233.705 49.3967 234.299 49.6278ZM249.418 63.6702C249.693 64.2471 249.951 64.8402 250.185 65.4332L249.892 65.5488C249.661 64.9626 249.406 64.3761 249.134 63.8058L249.418 63.6702ZM230.639 48.4857L230.566 48.7919C229.953 48.6461 229.327 48.5196 228.706 48.4162L228.758 48.1055C229.386 48.2102 230.019 48.3382 230.639 48.4857ZM250.829 67.2442C251.022 67.853 251.197 68.4755 251.347 69.0947L251.041 69.169C250.892 68.5569 250.72 67.9413 250.529 67.3392L250.829 67.2442ZM226.855 47.855L226.824 48.1683C226.197 48.1073 225.56 48.0673 224.93 48.0493L224.939 47.7346C225.576 47.7528 226.22 47.7932 226.855 47.855ZM251.737 70.976C251.845 71.6041 251.933 72.2443 251.998 72.8792L251.685 72.9112C251.62 72.2836 251.534 71.6505 251.427 71.0293L251.737 70.976ZM223.018 47.7452L223.031 48.0597C222.401 48.0848 221.764 48.1317 221.137 48.1994L221.103 47.8863C221.737 47.8179 222.381 47.7704 223.018 47.7452ZM252.128 74.7953C252.15 75.4328 252.15 76.0789 252.128 76.7156L251.813 76.7048C251.835 76.0752 251.835 75.4364 251.814 74.806L252.128 74.7953ZM219.201 48.158L219.256 48.4679C218.636 48.5781 218.011 48.7114 217.398 48.864L217.322 48.5586C217.942 48.4041 218.574 48.2694 219.201 48.158ZM251.997 78.631C251.932 79.2652 251.844 79.9051 251.735 80.5326L251.425 80.4791C251.532 79.8586 251.619 79.226 251.684 78.5987L251.997 78.631ZM215.475 49.0872L215.572 49.3866C214.971 49.5808 214.37 49.7984 213.784 50.0333L213.667 49.7412C214.259 49.5035 214.867 49.2835 215.475 49.0872ZM251.345 82.4114C251.194 83.0304 251.019 83.6519 250.826 84.2586L250.526 84.163C250.717 83.5632 250.89 82.9487 251.039 82.3367L251.345 82.4114ZM211.909 50.5182L212.046 50.8015C211.478 51.0766 210.912 51.375 210.364 51.6884L210.208 51.4152C210.762 51.098 211.334 50.7962 211.909 50.5182ZM250.182 86.0649C249.947 86.6579 249.689 87.2501 249.414 87.8251L249.13 87.6892C249.402 87.1207 249.657 86.5353 249.889 85.949L250.182 86.0649ZM208.575 52.4263L208.75 52.6882C208.225 53.0384 207.707 53.4114 207.208 53.7965L207.016 53.5474C207.52 53.1578 208.044 52.7807 208.575 52.4263ZM248.526 89.5277C248.212 90.0823 247.874 90.6333 247.523 91.1651L247.26 90.9915C247.608 90.4656 247.942 89.921 248.252 89.3726L248.526 89.5277ZM205.538 54.7727L205.747 55.0081C205.276 55.4261 204.813 55.8664 204.371 56.3167L204.147 56.0961C204.594 55.6408 205.062 55.1955 205.538 54.7727ZM246.41 92.7298C246.024 93.2355 245.614 93.7352 245.193 94.2151L244.957 94.0074C245.373 93.5329 245.778 93.0387 246.16 92.5386L246.41 92.7298ZM203.087 57.7159C202.676 58.1949 202.277 58.6935 201.9 59.1979L201.648 59.0096C202.029 58.4995 202.433 57.9953 202.848 57.5108L203.087 57.7159ZM200.817 60.7573C200.475 61.288 200.148 61.8364 199.844 62.3876L199.569 62.2356C199.876 61.6782 200.207 61.1235 200.553 60.5867L200.817 60.7573ZM198.986 64.081C198.721 64.6522 198.472 65.2398 198.247 65.8276L197.953 65.715C198.181 65.1205 198.432 64.5262 198.7 63.9486L198.986 64.081ZM197.63 67.6215C197.446 68.2245 197.28 68.8411 197.138 69.454L196.831 69.3829C196.975 68.7629 197.143 68.1394 197.329 67.5295L197.63 67.6215ZM196.773 71.3165C196.673 71.9396 196.593 72.5734 196.535 73.1999L196.222 73.1713C196.28 72.5376 196.361 71.8967 196.462 71.2665L196.773 71.3165ZM196.427 75.0955C196.413 75.7256 196.42 76.3644 196.448 76.9942L196.134 77.0085C196.105 76.3714 196.098 75.7254 196.112 75.0882L196.427 75.0955ZM196.599 78.8874C196.67 79.5146 196.764 80.1468 196.878 80.7663L196.568 80.8231C196.453 80.1967 196.358 79.5573 196.286 78.9231L196.599 78.8874ZM197.284 82.6218C197.441 83.2338 197.62 83.8474 197.817 84.4455L197.518 84.5442C197.319 83.9391 197.137 83.3187 196.979 82.6997L197.284 82.6218ZM198.474 86.2287C198.713 86.8133 198.974 87.3966 199.252 87.9626L198.97 88.1013C198.689 87.5289 198.424 86.9388 198.183 86.3476L198.474 86.2287ZM200.148 89.6389C200.465 90.1842 200.804 90.7254 201.157 91.2476L200.896 91.424C200.539 90.8958 200.196 90.3484 199.876 89.7969L200.148 89.6389ZM202.274 92.7828C202.662 93.2789 203.073 93.7684 203.494 94.2376L203.26 94.448C202.834 93.9734 202.419 93.4784 202.026 92.9768L202.274 92.7828Z" fill="#E6E6E6"/>
<path d="M243.624 95.4247L243.846 95.6481C243.62 95.872 243.39 96.0932 243.16 96.3057L242.946 96.0749C243.173 95.8648 243.401 95.6461 243.624 95.4247Z" fill="#E6E6E6"/>
<path d="M226.296 165.167C226.234 165.067 224.792 162.659 224.292 157.659C223.834 153.072 224.129 145.34 228.139 134.554C235.735 114.122 226.388 97.6356 226.292 97.4714L226.754 97.2039C226.778 97.2455 229.19 101.449 230.615 108.142C232.497 117.016 231.812 126.242 228.638 134.74C221.055 155.138 226.693 164.794 226.75 164.889L226.296 165.167Z" fill="#3F3D56"/>
<path d="M223.325 96.2717C225.238 96.2717 226.789 94.7206 226.789 92.8072C226.789 90.8939 225.238 89.3428 223.325 89.3428C221.412 89.3428 219.861 90.8939 219.861 92.8072C219.861 94.7206 221.412 96.2717 223.325 96.2717Z" fill="white"/>
<path d="M234.251 109.064C236.165 109.064 237.716 107.512 237.716 105.599C237.716 103.686 236.165 102.135 234.251 102.135C232.338 102.135 230.787 103.686 230.787 105.599C230.787 107.512 232.338 109.064 234.251 109.064Z" fill="#3F3D56"/>
<path d="M226.789 117.591C228.703 117.591 230.254 116.04 230.254 114.127C230.254 112.214 228.703 110.662 226.789 110.662C224.876 110.662 223.325 112.214 223.325 114.127C223.325 116.04 224.876 117.591 226.789 117.591Z" fill="#3F3D56"/>
<path d="M235.85 124.787C237.764 124.787 239.315 123.236 239.315 121.322C239.315 119.409 237.764 117.858 235.85 117.858C233.937 117.858 232.386 119.409 232.386 121.322C232.386 123.236 233.937 124.787 235.85 124.787Z" fill="#3F3D56"/>
<path d="M224.124 135.98C226.038 135.98 227.589 134.429 227.589 132.515C227.589 130.602 226.038 129.051 224.124 129.051C222.211 129.051 220.66 130.602 220.66 132.515C220.66 134.429 222.211 135.98 224.124 135.98Z" fill="white"/>
<path d="M228.388 165.294C228.388 165.294 224.924 156.766 235.317 150.37L228.388 165.294Z" fill="#3F3D56"/>
<path d="M224.128 165.14C224.128 165.14 222.551 156.071 210.348 156.149L224.128 165.14Z" fill="#3F3D56"/>
<path d="M93.7014 165.167C93.6402 165.067 92.1982 162.659 91.6982 157.659C91.2397 153.072 91.5345 145.34 95.5445 134.554C103.141 114.122 93.7938 97.6356 93.6983 97.4714L94.1594 97.2039C94.1836 97.2455 96.5956 101.449 98.0205 108.142C99.9032 117.016 99.2176 126.242 96.0441 134.74C88.4605 155.138 94.0985 164.794 94.1563 164.889L93.7014 165.167Z" fill="#3F3D56"/>
<path d="M90.7309 96.2717C92.6443 96.2717 94.1954 94.7206 94.1954 92.8072C94.1954 90.8939 92.6443 89.3428 90.7309 89.3428C88.8175 89.3428 87.2664 90.8939 87.2664 92.8072C87.2664 94.7206 88.8175 96.2717 90.7309 96.2717Z" fill="#3F3D56"/>
<path d="M101.657 109.064C103.571 109.064 105.122 107.512 105.122 105.599C105.122 103.686 103.571 102.135 101.657 102.135C99.7439 102.135 98.1928 103.686 98.1928 105.599C98.1928 107.512 99.7439 109.064 101.657 109.064Z" fill="#3F3D56"/>
<path d="M94.1953 117.591C96.1087 117.591 97.6598 116.04 97.6598 114.127C97.6598 112.214 96.1087 110.662 94.1953 110.662C92.282 110.662 90.7309 112.214 90.7309 114.127C90.7309 116.04 92.282 117.591 94.1953 117.591Z" fill="white"/>
<path d="M103.256 124.787C105.17 124.787 106.721 123.236 106.721 121.322C106.721 119.409 105.17 117.858 103.256 117.858C101.343 117.858 99.7918 119.409 99.7918 121.322C99.7918 123.236 101.343 124.787 103.256 124.787Z" fill="white"/>
<path d="M91.5304 135.98C93.4438 135.98 94.9949 134.429 94.9949 132.515C94.9949 130.602 93.4438 129.051 91.5304 129.051C89.617 129.051 88.0659 130.602 88.0659 132.515C88.0659 134.429 89.617 135.98 91.5304 135.98Z" fill="#3F3D56"/>
<path d="M95.7943 165.294C95.7943 165.294 92.3299 156.766 102.723 150.37L95.7943 165.294Z" fill="#3F3D56"/>
<path d="M91.5336 165.14C91.5336 165.14 89.9569 156.071 77.7535 156.149L91.5336 165.14Z" fill="#3F3D56"/>
<path d="M162.549 53.8801H125.11L125.26 53.4208C125.286 53.3402 128.027 45.3848 140.16 46.9207C141.304 46.5298 152.472 42.8835 159.156 46.98C162.123 48.7979 163.627 50.4875 163.627 52.0023C163.622 52.3645 163.529 52.7201 163.356 53.0384C163.183 53.3566 162.935 53.6278 162.634 53.8284L162.549 53.8801ZM126.123 53.1789H162.339C162.521 53.0389 162.668 52.8591 162.77 52.6534C162.871 52.4477 162.925 52.2215 162.926 51.992C162.92 51.131 162.198 49.6662 158.79 47.5777C152.17 43.5208 140.431 47.5683 140.313 47.6095L140.234 47.6373L140.152 47.6265C130.231 46.3408 126.902 51.5673 126.123 53.1789Z" fill="#E6E6E6"/>
<path d="M287.17 69.824H261.775L261.925 69.3647C261.943 69.3096 263.819 63.8763 272.053 64.9074C272.955 64.6019 280.415 62.2099 284.913 64.9667C286.946 66.2127 287.977 67.3832 287.977 68.4453C287.974 68.7086 287.906 68.9671 287.78 69.1983C287.654 69.4295 287.473 69.6265 287.254 69.7723L287.17 69.824ZM262.801 69.1228H286.955C287.055 69.0388 287.136 68.9337 287.192 68.815C287.247 68.6963 287.276 68.5668 287.276 68.4357C287.271 67.9852 286.91 67.0132 284.547 65.5644C280.14 62.8637 272.284 65.5687 272.206 65.5964L272.127 65.6238L272.044 65.6132C265.74 64.797 263.443 67.9143 262.801 69.1228Z" fill="#E6E6E6"/>
<path d="M180.77 79.0312H155.375L155.525 78.572C155.543 78.5167 157.417 73.0832 165.653 74.1147C166.556 73.8092 174.015 71.4171 178.513 74.1739C180.546 75.4199 181.577 76.5903 181.577 77.6526C181.574 77.9159 181.506 78.1744 181.38 78.4056C181.254 78.6368 181.073 78.8338 180.854 78.9795L180.77 79.0312ZM156.401 78.3301H180.555C180.655 78.246 180.736 78.1409 180.792 78.0222C180.847 77.9035 180.876 77.774 180.876 77.643C180.872 77.1925 180.511 76.2203 178.147 74.7717C173.74 72.0712 165.885 74.776 165.806 74.8037L165.727 74.8311L165.645 74.8205C159.339 74.0036 157.043 77.1216 156.401 78.3301Z" fill="#E6E6E6"/>
<path opacity="0.1" d="M67.5251 66.6266C73.2221 66.6266 77.8405 62.0082 77.8405 56.3112C77.8405 50.6141 73.2221 45.9957 67.5251 45.9957C61.828 45.9957 57.2096 50.6141 57.2096 56.3112C57.2096 62.0082 61.828 66.6266 67.5251 66.6266Z" fill="black"/>
<path d="M69.2637 67.4408C66.5811 67.4408 63.9587 66.6454 61.7282 65.155C59.4976 63.6646 57.7591 61.5463 56.7325 59.0679C55.7059 56.5894 55.4373 53.8623 55.9606 51.2312C56.484 48.6001 57.7758 46.1833 59.6726 44.2864C61.5695 42.3894 63.9863 41.0976 66.6174 40.5742C69.2485 40.0509 71.9757 40.3195 74.4541 41.346C76.9325 42.3726 79.0509 44.1111 80.5413 46.3416C82.0317 48.5721 82.8272 51.1945 82.8272 53.8771C82.8232 57.4732 81.3929 60.9208 78.8501 63.4636C76.3073 66.0064 72.8597 67.4367 69.2637 67.4408ZM69.2637 41.0147C66.7197 41.0147 64.2329 41.7691 62.1177 43.1824C60.0024 44.5958 58.3538 46.6046 57.3803 48.9549C56.4067 51.3052 56.152 53.8915 56.6483 56.3865C57.1446 58.8816 58.3696 61.1735 60.1685 62.9724C61.9673 64.7712 64.2592 65.9962 66.7543 66.4925C69.2494 66.9888 71.8356 66.7341 74.1859 65.7606C76.5362 64.787 78.5451 63.1384 79.9584 61.0232C81.3718 58.9079 82.1261 56.4211 82.1261 53.8771C82.1222 50.467 80.7658 47.1977 78.3545 44.7863C75.9432 42.375 72.6738 41.0186 69.2637 41.0147Z" fill="#E6E6E6"/>
<path d="M31.263 25.098V178.297H311.018V25.098H31.263ZM297.696 164.975H44.5846V38.4197H297.696V164.975Z" fill="#3F3D56"/>
<path opacity="0.5" d="M96.5356 164.975L102.958 178.297H42.7091L43.8835 38.4197H139.203C139.203 38.4197 114.783 91.0612 74.7336 119.752L96.5356 164.975Z" fill="#D0CDE1"/>
<path opacity="0.5" d="M245.044 164.975L238.621 178.297H298.87L297.696 38.4197H202.376C202.376 38.4197 226.797 91.0612 266.846 119.752L245.044 164.975Z" fill="#D0CDE1"/>
<path d="M79.2911 115.194H40.0273V121.855H79.2911V115.194Z" fill="#3F3D56"/>
<path d="M302.604 115.194H263.34V121.855H302.604V115.194Z" fill="#3F3D56"/>
<path d="M345.899 122.907L344.497 155.861L335.733 188.814C335.733 188.814 326.618 204.94 333.629 204.94C340.641 204.94 342.744 189.866 342.744 189.866L353.962 159.016L356.066 130.62L345.899 122.907Z" fill="#FFC7B6"/>
<path d="M325.917 245.957L326.618 271.198H333.629L336.434 255.072C336.434 255.072 338.888 248.411 338.888 248.06C338.888 247.71 325.917 245.957 325.917 245.957Z" fill="#FFC7B6"/>
<path d="M334.681 269.796H325.917C325.917 269.796 322.411 275.054 321.71 275.054C321.009 275.054 310.842 275.405 317.153 279.962C323.463 284.52 329.423 282.416 329.423 282.416V286.623C329.423 286.623 336.434 290.129 336.785 286.623C336.788 286.588 336.791 286.553 336.795 286.518C337.134 282.736 336.608 278.927 335.257 275.378C334.423 273.149 333.735 270.553 334.681 269.796Z" fill="#2F2E41"/>
<path d="M348.527 244.043L356.591 267.971L363.294 265.918L361.252 249.677C361.252 249.677 361.648 242.59 361.545 242.255C361.442 241.919 348.527 244.043 348.527 244.043Z" fill="#FFC7B6"/>
<path d="M363.889 264.269L355.509 266.836C355.509 266.836 353.698 272.891 353.027 273.096C352.357 273.301 342.739 276.615 350.107 279.124C357.476 281.633 362.558 277.876 362.558 277.876L363.79 281.898C363.79 281.898 371.521 283.197 370.829 279.742C370.822 279.707 370.815 279.673 370.808 279.638C370.025 275.923 368.407 272.435 366.075 269.438C364.625 267.551 363.206 265.27 363.889 264.269Z" fill="#2F2E41"/>
<path d="M333.454 114.318C339.069 114.318 343.621 109.766 343.621 104.152C343.621 98.5367 339.069 93.985 333.454 93.985C327.839 93.985 323.288 98.5367 323.288 104.152C323.288 109.766 327.839 114.318 333.454 114.318Z" fill="#FFC7B6"/>
<path d="M331.526 111.338C331.526 111.338 337.836 120.102 336.434 122.206C335.032 124.309 351.508 120.453 351.508 120.453C351.508 120.453 341.342 108.884 341.692 106.781C342.043 104.677 331.526 111.338 331.526 111.338Z" fill="#FFC7B6"/>
<path d="M344.848 117.298C344.848 117.298 336.434 117.298 333.629 120.804C330.825 124.309 327.67 131.671 327.67 131.671C327.67 131.671 324.687 132.79 323.616 138.696C322.879 142.941 323.514 147.31 325.427 151.169C327.195 154.801 329.264 159.967 327.494 161.294C324.69 163.398 316.627 180.576 316.627 209.322C316.627 225.342 312 236.409 307.903 243.067C304.474 248.639 309.29 255.628 315.723 254.442C315.848 254.419 315.974 254.395 316.101 254.371C328.721 251.917 365.531 247.359 365.531 247.359L355.365 222.469C355.365 222.469 350.457 214.406 353.612 201.785C356.767 189.165 348.003 166.027 348.003 166.027C348.003 166.027 359.747 139.559 357.643 133.599C355.54 127.64 352.911 115.545 350.457 115.896C348.555 116.225 346.68 116.693 344.848 117.298Z" fill="#2F2E41"/>
<path d="M333.629 122.907L332.227 155.861L323.463 188.814C323.463 188.814 314.348 204.94 321.359 204.94C328.371 204.94 330.474 189.866 330.474 189.866L341.692 159.016L343.796 130.62L333.629 122.907Z" fill="#FFC7B6"/>
<path d="M339.94 119.401C339.94 119.401 332.227 119.401 331.175 122.907C330.124 126.413 329.917 126.922 329.917 126.922C329.917 126.922 332.928 122.907 336.784 128.867C340.641 134.826 345.549 136.229 345.549 136.229C345.549 136.229 346.6 122.206 339.94 119.401Z" fill="#2F2E41"/>
<path d="M340.465 112.215C348.21 112.215 354.488 105.936 354.488 98.1919C354.488 90.4473 348.21 84.1691 340.465 84.1691C332.721 84.1691 326.443 90.4473 326.443 98.1919C326.443 105.936 332.721 112.215 340.465 112.215Z" fill="#2F2E41"/>
<path d="M338.258 109.621C334.833 108.622 331.918 106.356 330.106 103.283C328.294 100.211 327.721 96.5633 328.504 93.0833C328.405 93.3568 328.312 93.6334 328.229 93.9163C327.713 95.6843 327.551 97.5367 327.751 99.3677C327.951 101.199 328.509 102.972 329.395 104.587C330.281 106.202 331.476 107.627 332.912 108.78C334.348 109.933 335.998 110.792 337.766 111.307C339.534 111.823 341.386 111.985 343.217 111.784C345.048 111.584 346.822 111.025 348.436 110.139C350.051 109.253 351.476 108.057 352.628 106.621C353.781 105.184 354.639 103.534 355.154 101.766C355.237 101.483 355.307 101.2 355.371 100.916C354.16 104.272 351.717 107.04 348.538 108.657C345.358 110.274 341.682 110.619 338.258 109.621Z" fill="#2F2E41"/>
<path d="M329.948 107.657C330.529 107.657 331 106.872 331 105.904C331 104.936 330.529 104.151 329.948 104.151C329.368 104.151 328.897 104.936 328.897 105.904C328.897 106.872 329.368 107.657 329.948 107.657Z" fill="#FFC7B6"/>
<path d="M345.724 89.0771C348.435 89.0771 350.632 86.8797 350.632 84.1691C350.632 81.4585 348.435 79.2611 345.724 79.2611C343.013 79.2611 340.816 81.4585 340.816 84.1691C340.816 86.8797 343.013 89.0771 345.724 89.0771Z" fill="#2F2E41"/>
<path d="M339.764 83.1173C339.765 81.9068 340.212 80.7391 341.021 79.8385C341.83 78.9379 342.943 78.368 344.146 78.2384C343.461 78.1635 342.768 78.2339 342.111 78.445C341.455 78.656 340.85 79.003 340.337 79.4633C339.824 79.9236 339.413 80.4869 339.132 81.1165C338.851 81.7461 338.706 82.4278 338.706 83.1173C338.706 83.8068 338.851 84.4886 339.132 85.1181C339.413 85.7477 339.824 86.311 340.337 86.7713C340.85 87.2316 341.455 87.5786 342.111 87.7897C342.768 88.0008 343.461 88.0711 344.146 87.9963C342.943 87.8666 341.83 87.2967 341.021 86.3962C340.212 85.4956 339.765 84.3278 339.764 83.1173Z" fill="#2F2E41"/>
<path d="M328.897 92.5828C327.223 92.5828 325.618 93.2476 324.435 94.431C323.251 95.6144 322.586 97.2194 322.586 98.893H335.207C335.207 97.2194 334.542 95.6144 333.359 94.431C332.175 93.2476 330.57 92.5828 328.897 92.5828Z" fill="#2F2E41"/>
<path d="M263.427 217.353H214.348V218.054H263.427V217.353Z" fill="#F2F2F2"/>
<path d="M228.37 211.043H227.669V217.529H228.37V211.043Z" fill="#F2F2F2"/>
<path d="M249.755 211.043H249.054V217.529H249.755V211.043Z" fill="#F2F2F2"/>
<path d="M227.669 200.876H178.589V201.578H227.669V200.876Z" fill="#F2F2F2"/>
<path d="M192.612 194.566H191.911V201.052H192.612V194.566Z" fill="#F2F2F2"/>
<path d="M213.997 194.566H213.296V201.052H213.997V194.566Z" fill="#F2F2F2"/>
<path d="M110.929 240.491H61.8497V241.192H110.929V240.491Z" fill="#F2F2F2"/>
<path d="M75.8725 234.181H75.1713V240.666H75.8725V234.181Z" fill="#F2F2F2"/>
<path d="M97.2572 234.181H96.5561V240.666H97.2572V234.181Z" fill="#F2F2F2"/>
<path d="M170.877 224.014H121.797V224.715H170.877V224.014Z" fill="#F2F2F2"/>
<path d="M157.555 224.54H156.854V231.025H157.555V224.54Z" fill="#F2F2F2"/>
<path d="M136.17 224.54H135.469V231.025H136.17V224.54Z" fill="#F2F2F2"/>
<path d="M94.1021 205.434H45.0223V206.135H94.1021V205.434Z" fill="#F2F2F2"/>
<path d="M80.7805 205.96H80.0793V212.445H80.7805V205.96Z" fill="#F2F2F2"/>
<path d="M59.3957 205.96H58.6946V212.445H59.3957V205.96Z" fill="#F2F2F2"/>
<path d="M190.859 249.956H141.78V250.657H190.859V249.956Z" fill="#F2F2F2"/>
<path d="M155.802 243.646H155.101V250.131H155.802V243.646Z" fill="#F2F2F2"/>
<path d="M177.187 243.646H176.486V250.131H177.187V243.646Z" fill="#F2F2F2"/>
</g>
<defs>
<clipPath id="clip0_790_14546">
<rect width="400" height="288.181" fill="white" transform="translate(0.5)"/>
</clipPath>
</defs>
</svg>
