<svg width="269" height="40" viewBox="0 0 269 40" fill="none" xmlns="http://www.w3.org/2000/svg">
<path d="M49.5505 33.4083L50.538 29.7444C50.992 30.1906 51.5343 30.5861 52.1647 30.9314C52.7954 31.2763 53.4648 31.5451 54.1736 31.7378C54.8825 31.9301 55.5835 32.0263 56.2764 32.0263C57.3702 32.0263 58.2476 31.7928 58.9085 31.3256C59.5695 30.858 59.9001 30.245 59.9001 29.4858C59.9001 28.915 59.717 28.4406 59.3506 28.0624C58.9843 27.6838 58.5018 27.3542 57.903 27.0725C57.3046 26.7911 56.6563 26.519 55.9576 26.2563C55.0765 25.9192 54.192 25.5308 53.3037 25.0914C52.4158 24.6521 51.6757 24.0679 51.0838 23.3394C50.4918 22.6105 50.1958 21.6488 50.1958 20.454C50.1958 19.3099 50.4857 18.3163 51.0657 17.4736C51.6458 16.6305 52.4596 15.9781 53.5066 15.5163C54.5539 15.0545 55.7639 14.8234 57.1364 14.8234C59.263 14.8234 61.3671 15.3559 63.4484 16.4205L62.2577 19.8967C61.8329 19.5994 61.3287 19.3299 60.7445 19.0883C60.1604 18.8467 59.5623 18.6571 58.9503 18.5188C58.3387 18.3809 57.7722 18.3119 57.252 18.3119C56.3892 18.3119 55.697 18.5052 55.1754 18.8913C54.6538 19.2776 54.3928 19.7948 54.3928 20.4425C54.3928 20.8407 54.5172 21.2023 54.7653 21.5275C55.0137 21.8527 55.4156 22.1714 55.9719 22.4834C56.5282 22.795 57.2734 23.1409 58.2079 23.5205C59.1185 23.879 60.0238 24.2908 60.9236 24.757C61.8234 25.2229 62.5754 25.8281 63.1796 26.573C63.7834 27.3175 64.0855 28.2938 64.0855 29.5018C64.0855 30.6935 63.7675 31.7428 63.1317 32.6495C62.4959 33.5561 61.6107 34.2629 60.4757 34.7699C59.3408 35.2772 58.0233 35.5307 56.5234 35.5307C54.033 35.5307 51.7087 34.8232 49.5505 33.4083Z" fill="#040404"/>
<path d="M86.0229 32.7548C83.5512 34.6054 80.8354 35.5307 77.8753 35.5307C75.7702 35.5307 73.8809 35.0655 72.207 34.1348C70.5331 33.2044 69.2122 31.9372 68.2448 30.334C67.277 28.7304 66.7931 26.9199 66.7931 24.9025C66.7931 22.9697 67.2366 21.2444 68.1231 19.7275C69.0097 18.2103 70.2238 17.0138 71.7649 16.1374C73.3059 15.2614 75.0535 14.8234 77.0075 14.8234C79.0225 14.8234 80.797 15.3029 82.3316 16.2611C83.8662 17.2194 85.0619 18.5508 85.9196 20.2553C86.777 21.9597 87.2058 23.932 87.2058 26.1727V26.8098H71.2055C71.4444 27.848 71.896 28.7539 72.5597 29.5276C73.2233 30.3014 74.0487 30.9046 75.0366 31.3375C76.024 31.77 77.1335 31.9865 78.3653 31.9865C80.5663 31.9865 82.5878 31.2671 84.4302 29.828L86.0229 32.7548ZM71.0424 23.9823H83.3908C83.2606 22.8701 82.9174 21.8972 82.3615 21.0633C81.8052 20.2298 81.0858 19.5787 80.203 19.1101C79.3205 18.6418 78.3283 18.4074 77.2263 18.4074C76.1114 18.4074 75.1106 18.6439 74.2241 19.1162C73.3372 19.5889 72.6171 20.242 72.0636 21.0756C71.51 21.9091 71.1695 22.8779 71.0424 23.9823Z" fill="#040404"/>
<path d="M110.509 35.1325H106.427V24.3248C106.427 22.5513 105.946 21.1418 104.984 20.0959C104.022 19.0499 102.735 18.527 101.123 18.527C99.4536 18.527 98.1062 19.0849 97.0813 20.2016C96.0568 21.3178 95.5444 22.7984 95.5444 24.6436V35.1325H91.4626V15.2217H94.9032L95.0466 18.4356C95.771 17.2673 96.7249 16.3733 97.9078 15.7535C99.0903 15.1333 100.482 14.8234 102.083 14.8234C104.69 14.8234 106.746 15.6141 108.251 17.1949C109.757 18.7757 110.509 20.9495 110.509 23.7155V35.1325Z" fill="#040404"/>
<path d="M132.797 35.1324H114.4V32.9661L125.928 18.8933H114.977V15.2216H132.232V17.0773L120.461 31.4608H132.797V35.1324Z" fill="#040404"/>
<path d="M138.145 9.43944C137.521 9.43944 136.997 9.2206 136.572 8.78258C136.148 8.34457 135.935 7.81345 135.935 7.18956C135.935 6.57654 136.148 6.05358 136.572 5.621C136.997 5.18808 137.521 4.97162 138.145 4.97162C138.782 4.97162 139.317 5.18808 139.748 5.621C140.179 6.05358 140.395 6.57654 140.395 7.18956C140.395 7.81345 140.179 8.34457 139.748 8.78258C139.317 9.2206 138.782 9.43944 138.145 9.43944ZM140.188 35.1324H136.106V15.2216H140.188V35.1324Z" fill="#040404"/>
<path d="M149.271 35.1324H145.659V5.26624H149.741V17.7702C150.641 16.8439 151.7 16.1211 152.919 15.6019C154.138 15.083 155.464 14.8234 156.897 14.8234C158.817 14.8234 160.526 15.274 162.026 16.1755C163.526 17.0767 164.712 18.3071 165.582 19.8668C166.453 21.4266 166.888 23.1966 166.888 25.177C166.888 27.1469 166.453 28.9143 165.582 30.4794C164.712 32.0443 163.526 33.2774 162.026 34.1786C160.526 35.0801 158.817 35.5307 156.897 35.5307C155.384 35.5307 153.994 35.2419 152.726 34.6645C151.458 34.0872 150.373 33.2968 149.47 32.2933L149.271 35.1324ZM156.224 31.8591C157.461 31.8591 158.567 31.5689 159.543 30.9888C160.519 30.4091 161.29 29.6153 161.857 28.6078C162.424 27.6002 162.707 26.4595 162.707 25.1852C162.707 23.9055 162.424 22.7607 161.857 21.7504C161.29 20.7401 160.519 19.9426 159.543 19.3571C158.567 18.772 157.461 18.4794 156.224 18.4794C155.051 18.4794 153.988 18.7475 153.036 19.2837C152.085 19.8199 151.319 20.5526 150.739 21.4816C150.159 22.411 149.826 23.4675 149.741 24.6514V25.6749C149.826 26.8615 150.156 27.921 150.731 28.8528C151.305 29.7845 152.069 30.5185 153.02 31.0547C153.972 31.5909 155.04 31.8591 156.224 31.8591Z" fill="#040404"/>
<path d="M175.574 4.47009H171.225V35.1325H175.574V4.47009Z" fill="#040404"/>
<path d="M198.618 32.7548C196.146 34.6054 193.431 35.5307 190.47 35.5307C188.365 35.5307 186.476 35.0655 184.802 34.1348C183.128 33.2044 181.807 31.9372 180.84 30.334C179.872 28.7304 179.388 26.9199 179.388 24.9025C179.388 22.9697 179.832 21.2444 180.718 19.7275C181.605 18.2103 182.819 17.0138 184.36 16.1374C185.901 15.2614 187.648 14.8234 189.603 14.8234C191.617 14.8234 193.392 15.3029 194.926 16.2611C196.461 17.2194 197.657 18.5508 198.514 20.2553C199.372 21.9597 199.801 23.932 199.801 26.1727V26.8098H183.801C184.04 27.848 184.491 28.7539 185.154 29.5276C185.818 30.3014 186.644 30.9046 187.631 31.3375C188.619 31.77 189.729 31.9865 190.96 31.9865C193.161 31.9865 195.183 31.2671 197.025 29.828L198.618 32.7548ZM183.637 23.9823H195.986C195.856 22.8701 195.513 21.8972 194.956 21.0633C194.4 20.2298 193.681 19.5787 192.798 19.1101C191.915 18.6418 190.923 18.4074 189.821 18.4074C188.706 18.4074 187.706 18.6439 186.819 19.1162C185.932 19.5889 185.212 20.242 184.659 21.0756C184.105 21.9091 183.765 22.8779 183.637 23.9823Z" fill="#040404"/>
<path d="M201.538 35.5033C201.059 35.5033 200.652 35.3368 200.309 34.997C199.969 34.6572 199.799 34.2495 199.802 33.7669C199.799 33.2946 199.969 32.8902 200.309 32.5538C200.652 32.214 201.059 32.0475 201.538 32.0475C202.001 32.0475 202.405 32.214 202.752 32.5538C203.098 32.8902 203.275 33.2946 203.275 33.7669C203.275 34.0864 203.19 34.3786 203.03 34.6437C202.867 34.9053 202.656 35.116 202.395 35.2723C202.137 35.4252 201.851 35.5033 201.538 35.5033Z" fill="#7758B3"/>
<path d="M209.453 35.4998C208.607 35.4998 207.842 35.279 207.159 34.844C206.476 34.4056 205.936 33.76 205.538 32.9105C205.137 32.0576 204.94 31.011 204.94 29.7707C204.94 28.4964 205.144 27.4361 205.555 26.59C205.966 25.7439 206.513 25.1085 207.196 24.6871C207.883 24.2658 208.63 24.0516 209.446 24.0516C210.064 24.0516 210.584 24.157 211.002 24.3676C211.42 24.5783 211.757 24.8366 212.015 25.1492C212.273 25.4585 212.47 25.7643 212.609 26.0701H212.701V20.4904H215.783V35.3198H212.742V33.5425H212.609C212.463 33.8483 212.259 34.1508 211.994 34.4533C211.733 34.7523 211.39 35.0037 210.975 35.2008C210.557 35.4013 210.051 35.4998 209.453 35.4998ZM210.431 33.043C210.924 33.043 211.345 32.9071 211.692 32.6352C212.039 32.36 212.304 31.9794 212.487 31.4867C212.674 30.994 212.766 30.4197 212.766 29.7571C212.766 29.0978 212.674 28.5235 212.491 28.0376C212.31 27.5483 212.045 27.1745 211.699 26.9095C211.352 26.641 210.928 26.5085 210.431 26.5085C209.922 26.5085 209.49 26.6444 209.144 26.9196C208.797 27.1949 208.535 27.5755 208.359 28.0614C208.178 28.5507 208.09 29.1148 208.09 29.7571C208.09 30.4061 208.178 30.977 208.359 31.4697C208.539 31.9624 208.804 32.3498 209.15 32.625C209.497 32.9037 209.925 33.043 210.431 33.043Z" fill="#7758B3"/>
<path d="M223.076 35.5339C221.934 35.5339 220.952 35.3028 220.126 34.8373C219.304 34.3751 218.668 33.7126 218.227 32.8562C217.781 31.9999 217.561 30.9838 217.561 29.8115C217.561 28.6663 217.781 27.6605 218.227 26.7974C218.672 25.9343 219.3 25.2615 220.106 24.779C220.914 24.293 221.862 24.0517 222.953 24.0517C223.687 24.0517 224.374 24.1707 225.006 24.4051C225.641 24.6362 226.195 24.9896 226.671 25.4586C227.146 25.9275 227.517 26.5154 227.782 27.2222C228.05 27.929 228.183 28.7547 228.183 29.6994V30.5455H218.794V28.6358H225.281C225.278 28.194 225.179 27.7998 224.985 27.4566C224.792 27.1134 224.527 26.845 224.187 26.6479C223.844 26.4508 223.453 26.3522 223.004 26.3522C222.539 26.3522 222.124 26.461 221.764 26.6784C221.404 26.8959 221.125 27.1814 220.921 27.5416C220.717 27.9018 220.612 28.2994 220.605 28.7377V30.5591C220.605 31.1096 220.711 31.5853 220.918 31.9829C221.122 32.3839 221.414 32.6931 221.791 32.9106C222.168 33.1247 222.614 33.2334 223.127 33.2334C223.47 33.2334 223.786 33.1858 224.068 33.0873C224.353 32.9921 224.594 32.846 224.802 32.6523C225.006 32.462 225.159 32.2275 225.264 31.9489L228.115 32.1324C227.969 32.8222 227.673 33.4203 227.228 33.9266C226.783 34.4363 226.209 34.8339 225.505 35.1125C224.802 35.3946 223.993 35.5339 223.076 35.5339Z" fill="#7758B3"/>
<path d="M239.135 27.3649L236.315 27.5416C236.264 27.3003 236.162 27.0863 236.002 26.8892C235.846 26.6921 235.635 26.5357 235.377 26.4202C235.118 26.3013 234.809 26.2435 234.449 26.2435C233.973 26.2435 233.569 26.3421 233.243 26.5426C232.913 26.743 232.75 27.0081 232.753 27.3377C232.75 27.6062 232.855 27.8305 233.066 28.014C233.277 28.1975 233.644 28.3435 234.16 28.4556L236.175 28.8601C237.256 29.081 238.061 29.4377 238.591 29.9304C239.121 30.4232 239.386 31.0688 239.39 31.8742C239.386 32.6013 239.172 33.2436 238.748 33.7941C238.323 34.3412 237.738 34.7693 236.998 35.0751C236.253 35.381 235.401 35.5339 234.439 35.5339C232.964 35.5339 231.792 35.2281 230.922 34.613C230.049 33.998 229.539 33.162 229.393 32.0984L232.424 31.9353C232.516 32.3872 232.74 32.7305 233.09 32.9649C233.44 33.1994 233.892 33.3149 234.446 33.3149C234.983 33.3149 235.418 33.2096 235.751 32.9989C236.08 32.7883 236.25 32.5164 236.25 32.1867C236.25 31.9047 236.131 31.6737 235.9 31.4936C235.669 31.3101 235.312 31.1708 234.826 31.0722L232.903 30.6916C231.816 30.4775 231.007 30.1003 230.477 29.5634C229.95 29.0265 229.685 28.3435 229.688 27.511C229.685 26.7974 229.879 26.1823 230.269 25.6658C230.657 25.1493 231.207 24.7517 231.914 24.4731C232.624 24.1944 233.45 24.0517 234.398 24.0517C235.801 24.0517 236.909 24.3508 237.718 24.9421C238.527 25.5367 239.002 26.342 239.135 27.3649Z" fill="#7758B3"/>
<path d="M240.545 35.3199V24.1978H243.624V35.3199H240.545ZM242.091 22.7604C241.633 22.7604 241.242 22.6076 240.912 22.3051C240.586 21.9993 240.423 21.6323 240.423 21.2042C240.423 20.776 240.586 20.409 240.912 20.1032C241.242 19.7974 241.633 19.6444 242.091 19.6444C242.55 19.6444 242.944 19.7974 243.27 20.1032C243.597 20.409 243.76 20.776 243.76 21.2042C243.76 21.6323 243.597 21.9993 243.27 22.3051C242.944 22.6076 242.55 22.7604 242.091 22.7604Z" fill="#7758B3"/>
<path d="M250.39 39.7204C249.39 39.7204 248.534 39.5845 247.821 39.3092C247.107 39.0374 246.539 38.667 246.122 38.198C245.7 37.7291 245.428 37.2058 245.306 36.6213L248.16 36.2407C248.245 36.4616 248.381 36.6722 248.568 36.8625C248.755 37.0562 249.006 37.2092 249.316 37.3281C249.628 37.4436 250.009 37.5014 250.461 37.5014C251.13 37.5014 251.681 37.3417 252.119 37.0155C252.557 36.6927 252.778 36.149 252.778 35.3844V33.349H252.649C252.513 33.6582 252.309 33.9504 252.038 34.2256C251.766 34.5009 251.419 34.7285 250.994 34.9018C250.573 35.0751 250.067 35.1635 249.475 35.1635C248.64 35.1635 247.882 34.9664 247.199 34.579C246.516 34.1882 245.972 33.5902 245.568 32.7882C245.167 31.9863 244.963 30.9702 244.963 29.7367C244.963 28.476 245.167 27.4226 245.578 26.5799C245.989 25.7372 246.536 25.1052 247.223 24.6838C247.906 24.2624 248.653 24.0517 249.469 24.0517C250.091 24.0517 250.61 24.157 251.028 24.3677C251.45 24.5784 251.79 24.8367 252.048 25.1493C252.309 25.4585 252.507 25.7643 252.642 26.0702H252.765V24.1978H255.823V35.4285C255.823 36.3766 255.592 37.1684 255.126 37.8038C254.664 38.4393 254.022 38.9184 253.207 39.2378C252.388 39.5606 251.45 39.7204 250.39 39.7204ZM250.454 32.846C250.947 32.846 251.368 32.7203 251.715 32.4722C252.061 32.2242 252.33 31.8674 252.513 31.4019C252.697 30.9363 252.789 30.3756 252.789 29.7231C252.789 29.0741 252.697 28.5066 252.517 28.0275C252.333 27.545 252.068 27.1712 251.722 26.9062C251.375 26.6411 250.954 26.5085 250.454 26.5085C249.944 26.5085 249.516 26.6445 249.17 26.9197C248.823 27.1915 248.558 27.5688 248.381 28.0513C248.205 28.5338 248.113 29.0911 248.113 29.7231C248.113 30.362 248.205 30.9159 248.385 31.3814C248.565 31.8504 248.826 32.2106 249.173 32.4654C249.523 32.7203 249.948 32.846 250.454 32.846Z" fill="#7758B3"/>
<path d="M260.886 28.8906V35.3199H257.804V24.1978H260.74V26.1619H260.869C261.117 25.5129 261.532 24.9999 262.109 24.6193C262.691 24.2421 263.391 24.0517 264.216 24.0517C264.991 24.0517 265.664 24.2216 266.238 24.5614C266.813 24.8979 267.261 25.3804 267.577 26.0056C267.897 26.6309 268.053 27.3717 268.049 28.2348V35.3199H264.971V28.7853C264.971 28.1056 264.797 27.5755 264.447 27.1882C264.097 26.8042 263.611 26.6139 262.993 26.6139C262.578 26.6139 262.211 26.7023 261.895 26.8824C261.579 27.0625 261.331 27.3241 261.155 27.6639C260.978 28.0038 260.89 28.4115 260.886 28.8906Z" fill="#7758B3"/>
<path fill-rule="evenodd" clip-rule="evenodd" d="M39.1876 13.7322C40.8388 13.7322 42.363 14.6125 43.1874 16.0416C43.4992 16.5794 43.8295 17.1526 44.1389 17.6907C44.9657 19.1198 44.9657 20.8805 44.1389 22.3095C41.9173 26.1584 37.4809 33.8415 35.2593 37.6906C34.4348 39.1197 32.9107 40 31.2594 40H11.6827C11.1561 40 10.6712 39.7192 10.4079 39.2633C10.4056 39.2631 10.4056 39.2626 10.4056 39.2626C9.27173 37.2966 9.27173 34.8747 10.4056 32.909C11.5419 30.943 13.6387 29.7322 15.9088 29.7322H18.9919C19.7194 29.7322 20.3776 30.158 20.6778 30.8201C20.7679 31.0397 20.8764 31.2538 20.9988 31.4642C22.9109 34.7757 27.151 35.9119 30.4626 33.9999C33.7743 32.0882 34.9105 27.8475 32.9984 24.536C31.0862 21.2243 26.8461 20.0881 23.5345 22.0001C22.2181 22.7594 21.2459 23.8864 20.6732 25.1766C20.3753 25.8374 19.7171 26.2621 18.9919 26.2621C16.156 26.2681 9.35945 26.2681 5.57204 26.2681C3.92082 26.2681 2.3966 25.3877 1.56984 23.9587C1.26038 23.4206 0.930109 22.8474 0.618341 22.3095C-0.206113 20.8805 -0.206113 19.1198 0.618341 17.6907C2.83998 13.8416 7.27637 6.15848 9.49801 2.3094C10.3248 0.880344 11.849 0 13.5002 0H33.0746C33.6011 0 34.0885 0.280823 34.3517 0.736699C34.3517 0.736699 34.3517 0.737161 34.3517 0.737623C35.488 2.70339 35.488 5.12526 34.3517 7.09125C33.2178 9.05701 31.1208 10.2681 28.8507 10.2681H25.7654C25.0402 10.2678 24.3797 9.84198 24.0818 9.17987C23.9918 8.96025 23.8809 8.74617 23.7608 8.53601C21.8486 5.22433 17.6086 4.0881 14.2969 6.00006C10.9852 7.91178 9.84899 12.1525 11.7612 15.4642C13.6734 18.7757 17.9134 19.9119 21.2251 17.9999C22.5391 17.2406 23.5114 16.1136 24.0864 14.8234C24.3844 14.1626 25.0402 13.7379 25.7654 13.7379C28.6013 13.7322 35.3979 13.7322 39.1876 13.7322ZM16.0289 8.99997C17.6848 8.04411 19.8048 8.61222 20.7609 10.2681C21.717 11.9237 21.1489 14.0442 19.493 15C17.8372 15.9559 15.7172 15.3878 14.7611 13.7322C13.805 12.0763 14.3731 9.95606 16.0289 8.99997ZM25.2665 25C26.9223 24.0441 29.0424 24.6122 29.9985 26.2681C30.9546 27.9237 30.3864 30.0442 28.7306 31C27.0748 31.9559 24.9548 31.3878 23.9987 29.7322C23.0426 28.0763 23.6107 25.9561 25.2665 25Z" fill="#7758B3"/>
</svg>
