<svg width="269" height="41" viewBox="0 0 269 41" fill="none" xmlns="http://www.w3.org/2000/svg">
<path d="M50.5012 33.5894L51.4886 29.9256C51.9426 30.3717 52.485 30.7673 53.1153 31.1125C53.746 31.4574 54.4154 31.7262 55.1243 31.9189C55.8331 32.1112 56.5341 32.2074 57.227 32.2074C58.3209 32.2074 59.1982 31.9739 59.8592 31.5067C60.5201 31.0391 60.8507 30.4261 60.8507 29.667C60.8507 29.0961 60.6676 28.6217 60.3013 28.2435C59.9349 27.8649 59.4524 27.5353 58.8537 27.2536C58.2553 26.9723 57.6069 26.7001 56.9083 26.4374C56.0271 26.1003 55.1426 25.7119 54.2544 25.2725C53.3664 24.8332 52.6263 24.249 52.0344 23.5205C51.4424 22.7916 51.1465 21.8299 51.1465 20.6352C51.1465 19.491 51.4363 18.4974 52.0164 17.6547C52.5964 16.8116 53.4103 16.1592 54.4572 15.6974C55.5045 15.2356 56.7146 15.0045 58.0871 15.0045C60.2136 15.0045 62.3177 15.537 64.399 16.6016L63.2083 20.0779C62.7836 19.7805 62.2793 19.5111 61.6952 19.2695C61.111 19.0279 60.513 18.8382 59.901 18.6999C59.2893 18.562 58.7228 18.493 58.2026 18.493C57.3398 18.493 56.6476 18.6864 56.126 19.0724C55.6044 19.4587 55.3434 19.9759 55.3434 20.6236C55.3434 21.0219 55.4678 21.3834 55.7159 21.7086C55.9643 22.0338 56.3663 22.3526 56.9225 22.6645C57.4788 22.9761 58.224 23.322 59.1585 23.7016C60.0692 24.0601 60.9744 24.472 61.8742 24.9382C62.7741 25.4041 63.526 26.0092 64.1302 26.7541C64.7341 27.4986 65.0362 28.4749 65.0362 29.6829C65.0362 30.8747 64.7181 31.924 64.0823 32.8306C63.4465 33.7372 62.5613 34.444 61.4264 34.951C60.2914 35.4583 58.974 35.7118 57.474 35.7118C54.9836 35.7118 52.6593 35.0044 50.5012 33.5894Z" fill="#FCFCFC"/>
<path d="M86.9736 32.9359C84.5018 34.7865 81.786 35.7118 78.8259 35.7118C76.7208 35.7118 74.8315 35.2466 73.1576 34.3159C71.4837 33.3855 70.1628 32.1184 69.1954 30.5151C68.2276 28.9116 67.7437 27.1011 67.7437 25.0836C67.7437 23.1508 68.1872 21.4256 69.0738 19.9087C69.9603 18.3914 71.1745 17.1949 72.7155 16.3186C74.2565 15.4425 76.0042 15.0045 77.9581 15.0045C79.9731 15.0045 81.7476 15.484 83.2822 16.4423C84.8168 17.4005 86.0126 18.7319 86.8703 20.4364C87.7276 22.1409 88.1564 24.1131 88.1564 26.3538V26.991H72.1562C72.3951 28.0291 72.8467 28.935 73.5103 29.7088C74.174 30.4825 74.9994 31.0857 75.9872 31.5186C76.9747 31.9512 78.0841 32.1676 79.316 32.1676C81.5169 32.1676 83.5384 31.4482 85.3809 30.0092L86.9736 32.9359ZM71.9931 24.1634H84.3414C84.2112 23.0512 83.868 22.0783 83.3121 21.2444C82.7558 20.4109 82.0365 19.7598 81.1536 19.2912C80.2712 18.823 79.2789 18.5885 78.1769 18.5885C77.062 18.5885 76.0613 18.825 75.1747 19.2973C74.2878 19.77 73.5677 20.4231 73.0142 21.2567C72.4606 22.0902 72.1202 23.059 71.9931 24.1634Z" fill="#FCFCFC"/>
<path d="M111.46 35.3136H107.378V24.5059C107.378 22.7325 106.897 21.3229 105.935 20.277C104.972 19.2311 103.685 18.7081 102.074 18.7081C100.404 18.7081 99.0568 19.2661 98.032 20.3827C97.0075 21.499 96.495 22.9795 96.495 24.8247V35.3136H92.4132V15.4028H95.8538L95.9972 18.6167C96.7217 17.4484 97.6755 16.5544 98.8584 15.9346C100.041 15.3144 101.433 15.0045 103.034 15.0045C105.641 15.0045 107.697 15.7953 109.202 17.376C110.707 18.9568 111.46 21.1306 111.46 23.8967V35.3136Z" fill="#FCFCFC"/>
<path d="M133.748 35.3135H115.35V33.1472L126.879 19.0744H115.928V15.4027H133.182V17.2584L121.411 31.6419H133.748V35.3135Z" fill="#FCFCFC"/>
<path d="M139.096 9.62053C138.472 9.62053 137.948 9.40169 137.523 8.96367C137.098 8.52566 136.886 7.99454 136.886 7.37065C136.886 6.75763 137.098 6.23467 137.523 5.80209C137.948 5.36917 138.472 5.15271 139.096 5.15271C139.733 5.15271 140.267 5.36917 140.698 5.80209C141.13 6.23467 141.346 6.75763 141.346 7.37065C141.346 7.99454 141.13 8.52566 140.698 8.96367C140.267 9.40169 139.733 9.62053 139.096 9.62053ZM141.139 35.3135H137.057V15.4027H141.139V35.3135Z" fill="#FCFCFC"/>
<path d="M150.222 35.3135H146.61V5.44727H150.692V17.9512C151.592 17.0249 152.651 16.3021 153.87 15.7829C155.088 15.264 156.414 15.0044 157.848 15.0044C159.767 15.0044 161.477 15.455 162.977 16.3565C164.477 17.2577 165.662 18.4881 166.533 20.0479C167.404 21.6076 167.839 23.3777 167.839 25.3581C167.839 27.3279 167.404 29.0953 166.533 30.6605C165.662 32.2253 164.477 33.4584 162.977 34.3596C161.477 35.2611 159.767 35.7117 157.848 35.7117C156.335 35.7117 154.944 35.4229 153.676 34.8455C152.409 34.2682 151.324 33.4778 150.421 32.4744L150.222 35.3135ZM157.175 32.0401C158.412 32.0401 159.518 31.7499 160.494 31.1698C161.47 30.5901 162.241 29.7963 162.807 28.7888C163.374 27.7813 163.658 26.6405 163.658 25.3662C163.658 24.0865 163.374 22.9417 162.807 21.9314C162.241 20.9212 161.47 20.1236 160.494 19.5382C159.518 18.953 158.412 18.6604 157.175 18.6604C156.001 18.6604 154.939 18.9285 153.987 19.4648C153.035 20.001 152.269 20.7336 151.69 21.6626C151.11 22.592 150.777 23.6485 150.692 24.8324V25.8559C150.777 27.0425 151.107 28.102 151.681 29.0338C152.256 29.9656 153.02 30.6995 153.971 31.2358C154.923 31.772 155.991 32.0401 157.175 32.0401Z" fill="#FCFCFC"/>
<path d="M176.524 4.65112H172.176V35.3135H176.524V4.65112Z" fill="#FCFCFC"/>
<path d="M199.569 32.9359C197.097 34.7865 194.381 35.7118 191.421 35.7118C189.316 35.7118 187.426 35.2466 185.753 34.3159C184.079 33.3855 182.758 32.1184 181.79 30.5151C180.823 28.9116 180.339 27.1011 180.339 25.0836C180.339 23.1508 180.782 21.4256 181.669 19.9087C182.555 18.3914 183.769 17.1949 185.311 16.3186C186.852 15.4425 188.599 15.0045 190.553 15.0045C192.568 15.0045 194.343 15.484 195.877 16.4423C197.412 17.4005 198.608 18.7319 199.465 20.4364C200.323 22.1409 200.752 24.1131 200.752 26.3538V26.991H184.751C184.99 28.0291 185.441 28.935 186.105 29.7088C186.769 30.4825 187.595 31.0857 188.582 31.5186C189.569 31.9512 190.679 32.1676 191.911 32.1676C194.112 32.1676 196.133 31.4482 197.976 30.0092L199.569 32.9359ZM184.588 24.1634H196.936C196.806 23.0512 196.463 22.0783 195.907 21.2444C195.351 20.4109 194.632 19.7598 193.749 19.2912C192.866 18.823 191.874 18.5885 190.772 18.5885C189.657 18.5885 188.656 18.825 187.77 19.2973C186.883 19.77 186.163 20.4231 185.609 21.2567C185.056 22.0902 184.715 23.059 184.588 24.1634Z" fill="#FCFCFC"/>
<path d="M202.489 35.6846C202.01 35.6846 201.602 35.5181 201.259 35.1783C200.919 34.8385 200.749 34.4307 200.753 33.9482C200.749 33.4759 200.919 33.0715 201.259 32.7351C201.602 32.3953 202.01 32.2288 202.489 32.2288C202.951 32.2288 203.356 32.3953 203.702 32.7351C204.049 33.0715 204.226 33.4759 204.226 33.9482C204.226 34.2676 204.141 34.5599 203.981 34.825C203.818 35.0866 203.607 35.2972 203.345 35.4535C203.087 35.6065 202.802 35.6846 202.489 35.6846Z" fill="#7758B3"/>
<path d="M210.403 35.6811C209.557 35.6811 208.793 35.4602 208.11 35.0252C207.426 34.5869 206.886 33.9413 206.489 33.0918C206.088 32.2388 205.891 31.1922 205.891 29.9519C205.891 28.6776 206.095 27.6174 206.506 26.7713C206.917 25.9251 207.464 25.2897 208.147 24.8684C208.833 24.447 209.581 24.2329 210.396 24.2329C211.015 24.2329 211.535 24.3382 211.953 24.5489C212.371 24.7596 212.707 25.0178 212.965 25.3305C213.224 25.6397 213.421 25.9455 213.56 26.2513H213.652V20.6717H216.734V35.501H213.693V33.7238H213.56C213.414 34.0296 213.21 34.3321 212.945 34.6345C212.683 34.9335 212.34 35.185 211.926 35.3821C211.508 35.5826 211.001 35.6811 210.403 35.6811ZM211.382 33.2242C211.875 33.2242 212.296 33.0883 212.643 32.8165C212.989 32.5412 213.254 32.1607 213.438 31.668C213.625 31.1752 213.716 30.6009 213.716 29.9383C213.716 29.2791 213.625 28.7048 213.441 28.2189C213.261 27.7295 212.996 27.3558 212.649 27.0907C212.303 26.8223 211.878 26.6897 211.382 26.6897C210.872 26.6897 210.441 26.8256 210.094 27.1009C209.748 27.3761 209.486 27.7567 209.309 28.2427C209.129 28.732 209.041 29.2961 209.041 29.9383C209.041 30.5873 209.129 31.1582 209.309 31.651C209.489 32.1437 209.754 32.531 210.101 32.8063C210.448 33.0849 210.876 33.2242 211.382 33.2242Z" fill="#7758B3"/>
<path d="M224.026 35.7152C222.885 35.7152 221.902 35.4841 221.077 35.0185C220.254 34.5564 219.619 33.8938 219.177 33.0375C218.732 32.1812 218.511 31.1651 218.511 29.9927C218.511 28.8476 218.732 27.8418 219.177 26.9787C219.622 26.1155 220.251 25.4427 221.056 24.9602C221.865 24.4743 222.813 24.233 223.904 24.233C224.638 24.233 225.324 24.3519 225.956 24.5864C226.592 24.8175 227.146 25.1709 227.621 25.6398C228.097 26.1088 228.468 26.6966 228.733 27.4034C229.001 28.1102 229.134 28.936 229.134 29.8806V30.7268H219.745V28.817H226.232C226.228 28.3752 226.13 27.9811 225.936 27.6379C225.742 27.2947 225.477 27.0263 225.138 26.8292C224.794 26.6321 224.404 26.5335 223.955 26.5335C223.489 26.5335 223.075 26.6422 222.715 26.8597C222.354 27.0772 222.076 27.3626 221.872 27.7228C221.668 28.083 221.563 28.4806 221.556 28.919V30.7404C221.556 31.2909 221.661 31.7666 221.869 32.1642C222.072 32.5651 222.365 32.8744 222.742 33.0918C223.119 33.3059 223.564 33.4146 224.077 33.4146C224.42 33.4146 224.737 33.3671 225.019 33.2685C225.304 33.1734 225.545 33.0273 225.752 32.8336C225.956 32.6433 226.109 32.4088 226.215 32.1301L229.066 32.3137C228.919 33.0035 228.624 33.6015 228.179 34.1079C227.734 34.6176 227.159 35.0151 226.456 35.2938C225.753 35.5758 224.944 35.7152 224.026 35.7152Z" fill="#7758B3"/>
<path d="M240.086 27.5461L237.265 27.7228C237.214 27.4816 237.112 27.2675 236.953 27.0704C236.796 26.8733 236.586 26.717 236.327 26.6014C236.069 26.4825 235.76 26.4247 235.4 26.4247C234.924 26.4247 234.52 26.5233 234.193 26.7238C233.864 26.9243 233.701 27.1894 233.704 27.519C233.701 27.7874 233.806 28.0117 234.017 28.1952C234.227 28.3787 234.594 28.5248 235.111 28.6369L237.126 29.0413C238.206 29.2622 239.012 29.619 239.542 30.1117C240.072 30.6044 240.337 31.25 240.34 32.0554C240.337 32.7826 240.123 33.4249 239.698 33.9754C239.273 34.5225 238.689 34.9505 237.948 35.2564C237.204 35.5622 236.351 35.7152 235.39 35.7152C233.915 35.7152 232.742 35.4093 231.872 34.7943C230.999 34.1792 230.489 33.3432 230.343 32.2796L233.374 32.1165C233.466 32.5685 233.69 32.9117 234.04 33.1462C234.39 33.3806 234.842 33.4962 235.396 33.4962C235.933 33.4962 236.368 33.3909 236.701 33.1802C237.031 32.9695 237.201 32.6976 237.201 32.368C237.201 32.086 237.082 31.855 236.851 31.6749C236.62 31.4914 236.263 31.352 235.777 31.2535L233.854 30.8729C232.766 30.6588 231.957 30.2816 231.427 29.7447C230.901 29.2078 230.636 28.5247 230.639 27.6922C230.636 26.9786 230.829 26.3636 231.22 25.8471C231.607 25.3306 232.158 24.933 232.865 24.6543C233.575 24.3757 234.401 24.233 235.349 24.233C236.752 24.233 237.86 24.532 238.669 25.1233C239.477 25.718 239.953 26.5233 240.086 27.5461Z" fill="#7758B3"/>
<path d="M241.496 35.5011V24.3791H244.575V35.5011H241.496ZM243.042 22.9417C242.583 22.9417 242.192 22.7889 241.863 22.4864C241.537 22.1806 241.374 21.8136 241.374 21.3854C241.374 20.9573 241.537 20.5903 241.863 20.2845C242.192 19.9786 242.583 19.8257 243.042 19.8257C243.501 19.8257 243.895 19.9786 244.221 20.2845C244.547 20.5903 244.71 20.9573 244.71 21.3854C244.71 21.8136 244.547 22.1806 244.221 22.4864C243.895 22.7889 243.501 22.9417 243.042 22.9417Z" fill="#7758B3"/>
<path d="M251.34 39.9016C250.341 39.9016 249.485 39.7657 248.771 39.4905C248.058 39.2186 247.49 38.8482 247.072 38.3793C246.651 37.9104 246.379 37.387 246.257 36.8025L249.111 36.422C249.196 36.6429 249.332 36.8535 249.519 37.0438C249.706 37.2375 249.957 37.3904 250.266 37.5094C250.579 37.6249 250.96 37.6827 251.412 37.6827C252.081 37.6827 252.631 37.523 253.07 37.1968C253.508 36.8739 253.729 36.3302 253.729 35.5657V33.5302H253.6C253.464 33.8394 253.26 34.1316 252.988 34.4069C252.716 34.6821 252.37 34.9098 251.945 35.0831C251.524 35.2564 251.017 35.3447 250.426 35.3447C249.59 35.3447 248.832 35.1476 248.149 34.7603C247.466 34.3695 246.923 33.7714 246.518 32.9695C246.117 32.1675 245.913 31.1515 245.913 29.918C245.913 28.6573 246.117 27.6039 246.528 26.7611C246.94 25.9184 247.487 25.2864 248.173 24.8651C248.856 24.4437 249.604 24.233 250.419 24.233C251.041 24.233 251.561 24.3383 251.979 24.549C252.4 24.7597 252.74 25.0179 252.998 25.3305C253.26 25.6398 253.457 25.9456 253.593 26.2514H253.715V24.3791H256.774V35.6098C256.774 36.5579 256.543 37.3496 256.077 37.9851C255.615 38.6205 254.973 39.0996 254.157 39.419C253.338 39.7419 252.4 39.9016 251.34 39.9016ZM251.405 33.0273C251.897 33.0273 252.319 32.9015 252.665 32.6535C253.012 32.4054 253.28 32.0486 253.464 31.5831C253.647 31.1176 253.739 30.5568 253.739 29.9044C253.739 29.2553 253.647 28.6879 253.467 28.2087C253.284 27.7262 253.019 27.3525 252.672 27.0874C252.326 26.8224 251.904 26.6898 251.405 26.6898C250.895 26.6898 250.467 26.8257 250.12 27.1009C249.774 27.3728 249.509 27.75 249.332 28.2325C249.155 28.7151 249.063 29.2723 249.063 29.9044C249.063 30.5432 249.155 31.0971 249.335 31.5627C249.515 32.0316 249.777 32.3918 250.124 32.6467C250.474 32.9015 250.898 33.0273 251.405 33.0273Z" fill="#7758B3"/>
<path d="M261.837 29.0719V35.5011H258.755V24.3791H261.691V26.3432H261.82C262.068 25.6941 262.482 25.1811 263.06 24.8005C263.641 24.4233 264.341 24.233 265.167 24.233C265.942 24.233 266.615 24.4029 267.189 24.7427C267.763 25.0791 268.212 25.5616 268.528 26.1869C268.847 26.8121 269.003 27.5529 269 28.416V35.5011H265.921V28.9665C265.921 28.2869 265.748 27.7568 265.398 27.3694C265.048 26.9854 264.562 26.7951 263.944 26.7951C263.529 26.7951 263.162 26.8835 262.846 27.0636C262.53 27.2437 262.282 27.5054 262.105 27.8452C261.929 28.185 261.84 28.5927 261.837 29.0719Z" fill="#7758B3"/>
<path fill-rule="evenodd" clip-rule="evenodd" d="M40.1382 13.9133C41.7895 13.9133 43.3136 14.7937 44.1381 16.2227C44.4498 16.7606 44.7801 17.3338 45.0896 17.8719C45.9163 19.3009 45.9163 21.0616 45.0896 22.4907C42.8679 26.3395 38.4315 34.0227 36.2099 37.8717C35.3854 39.3008 33.8613 40.1812 32.2101 40.1812H12.6333C12.1068 40.1812 11.6218 39.9003 11.3585 39.4445C11.3562 39.4442 11.3563 39.4438 11.3563 39.4438C10.2224 37.4778 10.2224 35.0559 11.3563 33.0901C12.4925 31.1241 14.5893 29.9133 16.8595 29.9133H19.9425C20.67 29.9133 21.3282 30.3392 21.6285 31.0013C21.7185 31.2209 21.827 31.435 21.9494 31.6454C23.8616 34.9568 28.1016 36.093 31.4133 34.1811C34.7249 32.2694 35.8612 28.0286 33.949 24.7172C32.0368 21.4055 27.7968 20.2693 24.4851 22.1812C23.1687 22.9405 22.1966 24.0675 21.6238 25.3578C21.3259 26.0185 20.6677 26.4432 19.9425 26.4432C17.1066 26.4492 10.3101 26.4492 6.52266 26.4492C4.87144 26.4492 3.34722 25.5689 2.52046 24.1398C2.211 23.6017 1.88073 23.0285 1.56896 22.4907C0.744509 21.0616 0.744509 19.3009 1.56896 17.8719C3.7906 14.0228 8.227 6.33963 10.4486 2.49055C11.2754 1.0615 12.7996 0.181152 14.4508 0.181152H34.0252C34.5518 0.181152 35.0391 0.461976 35.3024 0.917852C35.3024 0.917852 35.3024 0.918314 35.3024 0.918775C36.4386 2.88454 36.4386 5.30641 35.3024 7.2724C34.1685 9.23817 32.0715 10.4492 29.8013 10.4492H26.716C25.9909 10.449 25.3304 10.0231 25.0324 9.36103C24.9424 9.1414 24.8315 8.92732 24.7114 8.71716C22.7992 5.40548 18.5592 4.26926 15.2475 6.18121C11.9358 8.09293 10.7996 12.3337 12.7118 15.6454C14.624 18.9568 18.864 20.093 22.1757 18.1811C23.4897 17.4218 24.462 16.2948 25.0371 15.0045C25.335 14.3438 25.9909 13.9191 26.716 13.9191C29.5519 13.9133 36.3485 13.9133 40.1382 13.9133ZM16.9796 9.18112C18.6354 8.22526 20.7555 8.79337 21.7116 10.4492C22.6676 12.1048 22.0995 14.2253 20.4436 15.1812C18.7878 16.137 16.6678 15.5689 15.7118 13.9133C14.7557 12.2575 15.3237 10.1372 16.9796 9.18112ZM26.2171 25.1811C27.873 24.2253 29.9931 24.7934 30.9491 26.4492C31.9052 28.1048 31.3371 30.2253 29.6812 31.1812C28.0254 32.137 25.9054 31.5689 24.9493 29.9133C23.9932 28.2575 24.5613 26.1372 26.2171 25.1811Z" fill="#7758B3"/>
</svg>
