<?xml version="1.0" encoding="UTF-8" standalone="no"?>
<!DOCTYPE svg PUBLIC "-//W3C//DTD SVG 1.1//EN" "http://www.w3.org/Graphics/SVG/1.1/DTD/svg11.dtd">
<svg width="100%" height="100%" viewBox="0 0 1001 361" version="1.1" xmlns="http://www.w3.org/2000/svg" xmlns:xlink="http://www.w3.org/1999/xlink" xml:space="preserve" xmlns:serif="http://www.serif.com/" style="fill-rule:evenodd;clip-rule:evenodd;stroke-linejoin:round;stroke-miterlimit:2;">
    <g transform="matrix(1,0,0,1,-5415,-2369)">
        <g transform="matrix(5,0,0,1.8,5415.38,2369.57)">
            <rect id="Logo-With-Text-Horizontal--cloud" serif:id="Logo With Text Horizontal -cloud" x="0" y="0" width="200" height="200" style="fill:none;"/>
            <clipPath id="_clip1">
                <rect id="Logo-With-Text-Horizontal--cloud1" serif:id="Logo With Text Horizontal -cloud" x="0" y="0" width="200" height="200"/>
            </clipPath>
            <g clip-path="url(#_clip1)">
                <g transform="matrix(0.25,0,0,0.555556,1.71431e-14,-558.122)">
                    <rect x="0" y="1004.62" width="800" height="360" style="fill:rgb(250,250,250);"/>
                </g>
                <g transform="matrix(1,0,0,1,-1.04082,0)">
                    <g transform="matrix(0.2,0,0,0.555556,34.8341,-168.439)">
                        <path d="M100.148,522.648L103.054,511.866C104.39,513.179 105.986,514.343 107.841,515.359C109.697,516.374 111.667,517.165 113.753,517.732C115.839,518.298 117.902,518.581 119.941,518.581C123.16,518.581 125.742,517.894 127.687,516.519C129.632,515.143 130.605,513.339 130.605,511.105C130.605,509.425 130.066,508.029 128.988,506.916C127.91,505.802 126.49,504.832 124.728,504.003C122.967,503.175 121.059,502.374 119.003,501.601C116.41,500.609 113.807,499.466 111.193,498.173C108.58,496.88 106.402,495.161 104.66,493.017C102.918,490.872 102.047,488.042 102.047,484.526C102.047,481.159 102.9,478.235 104.607,475.755C106.314,473.274 108.709,471.354 111.79,469.995C114.872,468.636 118.433,467.956 122.472,467.956C128.73,467.956 134.922,469.523 141.047,472.656L137.543,482.886C136.293,482.011 134.809,481.218 133.09,480.507C131.371,479.796 129.611,479.238 127.81,478.831C126.01,478.425 124.343,478.222 122.812,478.222C120.273,478.222 118.236,478.791 116.701,479.927C115.166,481.064 114.398,482.586 114.398,484.492C114.398,485.664 114.764,486.728 115.494,487.685C116.225,488.642 117.408,489.58 119.045,490.498C120.682,491.415 122.875,492.433 125.625,493.55C128.305,494.605 130.969,495.817 133.617,497.189C136.265,498.56 138.478,500.341 140.256,502.533C142.033,504.724 142.922,507.597 142.922,511.152C142.922,514.659 141.986,517.747 140.115,520.415C138.244,523.083 135.639,525.163 132.299,526.655C128.959,528.148 125.082,528.894 120.668,528.894C113.339,528.894 106.499,526.812 100.148,522.648Z" style="fill:rgb(28,28,28);fill-rule:nonzero;"/>
                        <path d="M207.48,520.725C200.206,526.171 192.214,528.894 183.503,528.894C177.308,528.894 171.748,527.525 166.822,524.786C161.896,522.048 158.009,518.319 155.162,513.601C152.314,508.882 150.89,503.554 150.89,497.617C150.89,491.929 152.195,486.852 154.804,482.388C157.413,477.923 160.986,474.402 165.521,471.823C170.056,469.245 175.199,467.956 180.949,467.956C186.879,467.956 192.101,469.367 196.617,472.187C201.133,475.007 204.652,478.925 207.176,483.941C209.699,488.957 210.961,494.761 210.961,501.355L210.961,503.23L163.875,503.23C164.578,506.285 165.907,508.951 167.86,511.228C169.813,513.505 172.242,515.28 175.149,516.554C178.055,517.827 181.32,518.464 184.945,518.464C191.422,518.464 197.371,516.347 202.793,512.112L207.48,520.725ZM163.395,494.909L199.734,494.909C199.351,491.636 198.341,488.773 196.705,486.319C195.068,483.866 192.951,481.95 190.353,480.571C187.756,479.193 184.836,478.503 181.593,478.503C178.312,478.503 175.367,479.199 172.758,480.589C170.148,481.98 168.029,483.902 166.4,486.355C164.771,488.808 163.769,491.659 163.395,494.909Z" style="fill:rgb(28,28,28);fill-rule:nonzero;"/>
                        <path d="M279.538,527.722L267.527,527.722L267.527,495.917C267.527,490.698 266.111,486.55 263.279,483.472C260.447,480.394 256.66,478.855 251.918,478.855C247.004,478.855 243.039,480.497 240.023,483.783C237.008,487.068 235.5,491.425 235.5,496.855L235.5,527.722L223.488,527.722L223.488,469.128L233.613,469.128L234.035,478.586C236.167,475.148 238.974,472.517 242.455,470.693C245.935,468.868 250.031,467.956 254.742,467.956C262.414,467.956 268.464,470.283 272.894,474.935C277.324,479.587 279.538,485.984 279.538,494.124L279.538,527.722Z" style="fill:rgb(28,28,28);fill-rule:nonzero;"/>
                        <path d="M345.129,527.722L290.988,527.722L290.988,521.347L324.914,479.933L292.687,479.933L292.687,469.128L343.464,469.128L343.464,474.589L308.824,516.917L345.129,516.917L345.129,527.722Z" style="fill:rgb(28,28,28);fill-rule:nonzero;"/>
                        <path d="M360.867,452.112C359.031,452.112 357.488,451.468 356.238,450.179C354.988,448.89 354.363,447.327 354.363,445.491C354.363,443.687 354.988,442.148 356.238,440.875C357.488,439.601 359.031,438.964 360.867,438.964C362.742,438.964 364.314,439.601 365.583,440.875C366.853,442.148 367.488,443.687 367.488,445.491C367.488,447.327 366.853,448.89 365.583,450.179C364.314,451.468 362.742,452.112 360.867,452.112ZM366.879,527.722L354.867,527.722L354.867,469.128L366.879,469.128L366.879,527.722Z" style="fill:rgb(28,28,28);fill-rule:nonzero;"/>
                        <path d="M393.609,527.722L382.98,527.722L382.98,439.831L394.992,439.831L394.992,476.628C397.64,473.902 400.757,471.775 404.344,470.247C407.93,468.72 411.832,467.956 416.051,467.956C421.699,467.956 426.73,469.282 431.144,471.935C435.558,474.587 439.047,478.208 441.609,482.798C444.172,487.388 445.453,492.597 445.453,498.425C445.453,504.222 444.172,509.423 441.609,514.029C439.047,518.634 435.558,522.263 431.144,524.915C426.73,527.568 421.699,528.894 416.051,528.894C411.598,528.894 407.506,528.044 403.775,526.345C400.045,524.646 396.852,522.32 394.195,519.367L393.609,527.722ZM414.07,518.089C417.71,518.089 420.966,517.235 423.837,515.528C426.709,513.822 428.978,511.486 430.646,508.521C432.314,505.556 433.148,502.199 433.148,498.449C433.148,494.683 432.314,491.314 430.646,488.341C428.978,485.368 426.709,483.021 423.837,481.298C420.966,479.576 417.71,478.715 414.07,478.715C410.617,478.715 407.49,479.504 404.689,481.082C401.888,482.66 399.634,484.816 397.928,487.55C396.221,490.285 395.242,493.394 394.992,496.878L394.992,499.89C395.242,503.382 396.213,506.5 397.904,509.242C399.595,511.984 401.842,514.144 404.642,515.722C407.443,517.3 410.586,518.089 414.07,518.089Z" style="fill:rgb(28,28,28);fill-rule:nonzero;"/>
                        <rect x="458.215" y="437.488" width="12.797" height="90.234" style="fill:rgb(28,28,28);fill-rule:nonzero;"/>
                        <path d="M538.828,520.725C531.554,526.171 523.562,528.894 514.851,528.894C508.656,528.894 503.095,527.525 498.17,524.786C493.244,522.048 489.357,518.319 486.509,513.601C483.662,508.882 482.238,503.554 482.238,497.617C482.238,491.929 483.543,486.852 486.152,482.388C488.761,477.923 492.333,474.402 496.869,471.823C501.404,469.245 506.546,467.956 512.297,467.956C518.226,467.956 523.449,469.367 527.964,472.187C532.48,475.007 536,478.925 538.523,483.941C541.047,488.957 542.309,494.761 542.309,501.355L542.309,503.23L495.223,503.23C495.926,506.285 497.254,508.951 499.207,511.228C501.16,513.505 503.59,515.28 506.496,516.554C509.402,517.827 512.668,518.464 516.293,518.464C522.769,518.464 528.718,516.347 534.14,512.112L538.828,520.725ZM494.742,494.909L531.081,494.909C530.699,491.636 529.689,488.773 528.052,486.319C526.416,483.866 524.299,481.95 521.701,480.571C519.103,479.193 516.183,478.503 512.941,478.503C509.66,478.503 506.715,479.199 504.105,480.589C501.496,481.98 499.377,483.902 497.748,486.355C496.119,488.808 495.117,491.659 494.742,494.909Z" style="fill:rgb(28,28,28);fill-rule:nonzero;"/>
                    </g>
                    <g transform="matrix(0.246459,-0.395259,0.169373,0.814897,-0.744736,79.412)">
                        <path d="M70.961,72.259C68.006,70.825 66.185,68.176 66.185,65.309L66.185,62C66.185,59.133 68.006,56.484 70.961,55.05C78.921,51.189 94.811,43.482 102.772,39.621C105.727,38.187 109.368,38.187 112.324,39.621C121.615,44.127 141.707,53.873 147.387,56.628C148.33,57.085 148.911,57.93 148.911,58.845L148.911,58.847C148.911,62.791 146.406,66.435 142.341,68.407C138.275,70.379 133.266,70.379 129.2,68.407C124.773,66.259 121.356,64.602 121.356,64.602C121.695,63.576 121.876,62.496 121.876,61.379C121.876,54.736 115.456,49.342 107.548,49.342C99.64,49.342 93.219,54.736 93.219,61.379C93.219,68.023 99.64,73.417 107.548,73.417C111.549,73.417 115.169,72.037 117.769,69.812C117.769,69.812 135.406,78.367 144.134,82.6C147.09,84.034 148.911,86.683 148.911,89.55L148.911,92.859C148.911,95.726 147.09,98.375 144.134,99.809C136.174,103.67 120.284,111.377 112.324,115.238C109.368,116.672 105.727,116.672 102.772,115.238C93.481,110.732 73.389,100.986 67.709,98.231C66.766,97.774 66.185,96.929 66.185,96.014L66.185,96.013C66.185,92.069 68.689,88.424 72.755,86.452C76.821,84.48 81.83,84.48 85.895,86.452C90.323,88.6 93.739,90.257 93.739,90.257C93.4,91.283 93.219,92.364 93.219,93.48C93.219,100.124 99.64,105.517 107.548,105.517C115.456,105.517 121.876,100.124 121.876,93.48C121.876,86.836 115.456,81.442 107.548,81.442C103.547,81.442 99.927,82.823 97.327,85.047C97.327,85.047 79.689,76.492 70.961,72.259ZM100.384,93.48C100.384,91.254 101.825,89.309 103.966,88.267C105.02,87.755 106.243,87.461 107.548,87.461C111.502,87.461 114.712,90.158 114.712,93.48C114.712,96.802 111.502,99.499 107.548,99.499C103.594,99.499 100.384,96.802 100.384,93.48ZM111.13,66.592C110.076,67.105 108.852,67.398 107.548,67.398C103.594,67.398 100.384,64.701 100.384,61.379C100.384,58.058 103.594,55.361 107.548,55.361C111.502,55.361 114.712,58.058 114.712,61.379C114.712,63.605 113.271,65.551 111.13,66.592Z" style="fill:rgb(58,228,240);"/>
                    </g>
                    <g transform="matrix(0.2,0,0,0.555556,-828.042,-1106.96)">
                        <path d="M4861.8,2218.15C4860.39,2218.15 4859.19,2217.66 4858.18,2216.66C4857.18,2215.66 4856.68,2214.46 4856.69,2213.04C4856.68,2211.65 4857.18,2210.46 4858.18,2209.47C4859.19,2208.47 4860.39,2207.98 4861.8,2207.98C4863.16,2207.98 4864.35,2208.47 4865.37,2209.47C4866.39,2210.46 4866.91,2211.65 4866.91,2213.04C4866.91,2213.98 4866.66,2214.84 4866.19,2215.62C4865.71,2216.39 4865.09,2217.01 4864.32,2217.47C4863.56,2217.92 4862.72,2218.15 4861.8,2218.15Z" style="fill:rgb(58,228,240);fill-rule:nonzero;"/>
                        <path d="M4887.81,2218.24C4884.45,2218.24 4881.57,2217.53 4879.17,2216.1C4876.77,2214.67 4874.92,2212.69 4873.64,2210.15C4872.35,2207.61 4871.7,2204.68 4871.7,2201.36C4871.7,2198.02 4872.36,2195.08 4873.66,2192.54C4874.96,2190 4876.81,2188.02 4879.21,2186.59C4881.61,2185.17 4884.47,2184.45 4887.78,2184.45C4890.62,2184.45 4893.12,2184.97 4895.27,2186.01C4897.42,2187.04 4899.12,2188.5 4900.37,2190.38C4901.61,2192.26 4902.3,2194.46 4902.42,2196.98L4893.86,2196.98C4893.62,2195.36 4892.98,2194.04 4891.96,2193.03C4890.93,2192.03 4889.59,2191.53 4887.91,2191.53C4886.52,2191.53 4885.29,2191.91 4884.24,2192.67C4883.2,2193.43 4882.38,2194.53 4881.8,2195.98C4881.22,2197.43 4880.93,2199.18 4880.93,2201.24C4880.93,2203.33 4881.21,2205.1 4881.79,2206.57C4882.37,2208.03 4883.18,2209.14 4884.23,2209.91C4885.28,2210.68 4886.51,2211.06 4887.91,2211.06C4888.96,2211.06 4889.89,2210.85 4890.72,2210.43C4891.55,2210 4892.23,2209.38 4892.78,2208.57C4893.33,2207.75 4893.69,2206.77 4893.86,2205.61L4902.42,2205.61C4902.28,2208.11 4901.61,2210.31 4900.39,2212.21C4899.18,2214.11 4897.51,2215.59 4895.37,2216.65C4893.24,2217.71 4890.72,2218.24 4887.81,2218.24Z" style="fill:rgb(58,228,240);fill-rule:nonzero;"/>
                        <rect x="4906.53" y="2173.97" width="9.068" height="43.636" style="fill:rgb(58,228,240);fill-rule:nonzero;"/>
                        <path d="M4935.54,2218.24C4932.23,2218.24 4929.37,2217.53 4926.96,2216.12C4924.56,2214.71 4922.7,2212.74 4921.39,2210.21C4920.09,2207.68 4919.43,2204.73 4919.43,2201.36C4919.43,2197.99 4920.09,2195.03 4921.39,2192.49C4922.7,2189.95 4924.56,2187.98 4926.96,2186.57C4929.37,2185.16 4932.23,2184.45 4935.54,2184.45C4938.85,2184.45 4941.71,2185.16 4944.12,2186.57C4946.52,2187.98 4948.38,2189.95 4949.69,2192.49C4950.99,2195.03 4951.65,2197.99 4951.65,2201.36C4951.65,2204.73 4950.99,2207.68 4949.69,2210.21C4948.38,2212.74 4946.52,2214.71 4944.12,2216.12C4941.71,2217.53 4938.85,2218.24 4935.54,2218.24ZM4935.59,2211.22C4937.09,2211.22 4938.34,2210.79 4939.35,2209.93C4940.37,2209.06 4941.13,2207.89 4941.65,2206.4C4942.17,2204.91 4942.43,2203.21 4942.43,2201.31C4942.43,2199.41 4942.17,2197.71 4941.65,2196.21C4941.13,2194.72 4940.37,2193.54 4939.35,2192.68C4938.34,2191.81 4937.09,2191.38 4935.59,2191.38C4934.06,2191.38 4932.78,2191.81 4931.75,2192.68C4930.72,2193.54 4929.95,2194.72 4929.43,2196.21C4928.91,2197.71 4928.65,2199.41 4928.65,2201.31C4928.65,2203.21 4928.91,2204.91 4929.43,2206.4C4929.95,2207.89 4930.72,2209.06 4931.75,2209.93C4932.78,2210.79 4934.06,2211.22 4935.59,2211.22Z" style="fill:rgb(58,228,240);fill-rule:nonzero;"/>
                        <path d="M4977.54,2203.66L4977.54,2184.88L4986.61,2184.88L4986.61,2217.61L4977.9,2217.61L4977.9,2211.66L4977.56,2211.66C4976.82,2213.58 4975.6,2215.12 4973.89,2216.28C4972.18,2217.45 4970.09,2218.03 4967.64,2218.03C4965.45,2218.03 4963.52,2217.54 4961.86,2216.55C4960.19,2215.56 4958.9,2214.14 4957.97,2212.3C4957.03,2210.47 4956.57,2208.27 4956.56,2205.73L4956.56,2184.88L4965.62,2184.88L4965.62,2204.11C4965.63,2206.03 4966.15,2207.56 4967.18,2208.68C4968.2,2209.8 4969.58,2210.36 4971.3,2210.36C4972.39,2210.36 4973.41,2210.11 4974.36,2209.6C4975.31,2209.1 4976.08,2208.35 4976.67,2207.35C4977.26,2206.36 4977.55,2205.13 4977.54,2203.66Z" style="fill:rgb(58,228,240);fill-rule:nonzero;"/>
                        <path d="M5003.47,2218.14C5000.98,2218.14 4998.73,2217.49 4996.72,2216.21C4994.72,2214.92 4993.12,2213.02 4991.95,2210.52C4990.78,2208.01 4990.19,2204.93 4990.19,2201.28C4990.19,2197.53 4990.79,2194.41 4992,2191.92C4993.21,2189.43 4994.82,2187.56 4996.83,2186.32C4998.85,2185.08 5001.05,2184.45 5003.45,2184.45C5005.27,2184.45 5006.8,2184.76 5008.03,2185.38C5009.26,2186 5010.25,2186.76 5011.01,2187.68C5011.77,2188.59 5012.35,2189.49 5012.76,2190.39L5013.03,2190.39L5013.03,2173.97L5022.1,2173.97L5022.1,2217.61L5013.15,2217.61L5013.15,2212.38L5012.76,2212.38C5012.34,2213.28 5011.73,2214.17 5010.95,2215.06C5010.18,2215.94 5009.17,2216.68 5007.95,2217.26C5006.72,2217.85 5005.23,2218.14 5003.47,2218.14ZM5006.35,2210.91C5007.8,2210.91 5009.04,2210.51 5010.06,2209.71C5011.08,2208.9 5011.86,2207.78 5012.4,2206.33C5012.94,2204.88 5013.22,2203.19 5013.22,2201.24C5013.22,2199.3 5012.95,2197.61 5012.41,2196.18C5011.88,2194.74 5011.1,2193.64 5010.08,2192.86C5009.06,2192.07 5007.81,2191.68 5006.35,2191.68C5004.85,2191.68 5003.59,2192.08 5002.56,2192.89C5001.54,2193.7 5000.77,2194.82 5000.25,2196.25C4999.72,2197.69 4999.46,2199.35 4999.46,2201.24C4999.46,2203.15 4999.73,2204.83 5000.26,2206.28C5000.78,2207.73 5001.56,2208.87 5002.58,2209.68C5003.6,2210.5 5004.86,2210.91 5006.35,2210.91Z" style="fill:rgb(58,228,240);fill-rule:nonzero;"/>
                    </g>
                </g>
            </g>
        </g>
    </g>
</svg>
